<?xml version="1.0" standalone="no"?>
<!DOCTYPE svg PUBLIC "-//W3C//DTD SVG 20010904//EN"
 "http://www.w3.org/TR/2001/REC-SVG-20010904/DTD/svg10.dtd">
<svg version="1.0" xmlns="http://www.w3.org/2000/svg"
 width="500.000000pt" height="500.000000pt" viewBox="0 0 500.000000 500.000000"
 preserveAspectRatio="xMidYMid meet">

<g transform="translate(0.000000,500.000000) scale(0.100000,-0.100000)"
fill="#000000" stroke="none">
<path d="M1861 4273 c-7 -16 -360 -820 -783 -1788 -424 -968 -772 -1763 -775
-1768 -2 -4 310 -6 693 -5 l698 3 112 290 112 290 572 0 573 0 112 -290 112
-290 707 -3 c389 -1 705 1 703 5 -4 6 -1330 3035 -1545 3526 l-25 57 -627 0
-627 0 -12 -27z m721 -1723 l85 -220 -173 0 c-96 0 -174 3 -174 7 0 14 165
433 171 433 3 0 44 -99 91 -220z"/>
<path d="M1540 480 c-11 -11 -20 -31 -20 -45 0 -14 9 -34 20 -45 20 -20 33
-20 960 -20 927 0 940 0 960 20 11 11 20 31 20 45 0 14 -9 34 -20 45 -20 20
-33 20 -960 20 -927 0 -940 0 -960 -20z"/>
</g>
</svg>
